<svg version="1.1" xmlns="http://www.w3.org/2000/svg" xmlns:xlink="http://www.w3.org/1999/xlink" x="0px" y="0px" height="24" width="24"
	 viewBox="0 0 512 512" style="enable-background:new 0 0 512 512;" xml:space="preserve">
	<g>
		<path d="M480.56,206.698h-7.853v-21.355c0-24.625-20.034-44.658-44.659-44.658h-11.139c-4.727-17.548-20.771-30.503-39.792-30.503
			c-22.724,0-41.211,18.486-41.211,41.21v68.197H176.093v-68.197c0-22.724-18.487-41.21-41.21-41.21
			c-19.02,0-35.064,12.955-39.791,30.503h-11.14c-24.625,0-44.659,20.033-44.659,44.658v21.355H31.44
			c-17.336,0-31.44,14.105-31.44,31.44v35.609c0,17.336,14.104,31.439,31.44,31.439h7.854v21.469
			c0,24.625,20.034,44.658,44.659,44.658h11.14c4.727,17.548,20.771,30.503,39.791,30.503c22.724,0,41.21-18.486,41.21-41.21
			v-68.197h136.999c4.143,0,7.5-3.357,7.5-7.5s-3.357-7.5-7.5-7.5h-137v-42.821h159.813v126.019c0,22.724,18.487,41.21,41.211,41.21
			c19.021,0,35.065-12.955,39.792-30.503h11.139c24.625,0,44.659-20.033,44.659-44.658v-21.469h7.853
			c17.336,0,31.44-14.103,31.44-31.439v-35.609C512,220.802,497.896,206.698,480.56,206.698z M39.294,290.188H31.44v-0.001
			c-9.065,0-16.44-7.375-16.44-16.439v-35.609c0-9.065,7.375-16.44,16.44-16.44h7.854V290.188z M161.093,360.607
			c0,14.452-11.758,26.21-26.21,26.21c-14.453,0-26.21-11.758-26.21-26.21V209.283c0-4.143-3.358-7.5-7.5-7.5
			c-4.142,0-7.5,3.357-7.5,7.5v147.032h-9.72c-16.354,0-29.659-13.305-29.659-29.658V185.342c0-16.354,13.305-29.658,29.659-29.658
			h9.72v20.372c0,4.143,3.358,7.5,7.5,7.5c4.142,0,7.5-3.357,7.5-7.5v-24.665c0-14.452,11.758-26.21,26.21-26.21
			c14.453,0,26.21,11.758,26.21,26.21V360.607z M403.328,360.607c0,14.452-11.758,26.21-26.211,26.21s-26.211-11.758-26.211-26.21
			V151.391c0-14.452,11.758-26.21,26.211-26.21s26.211,11.758,26.211,26.21V360.607z M457.707,326.656
			c0,16.353-13.305,29.658-29.659,29.658h-9.72v-200.63h9.72c16.354,0,29.659,13.305,29.659,29.658V326.656z M497,273.748
			c0,9.064-7.375,16.439-16.44,16.439h-7.853v-68.489h7.853c9.065,0,16.44,7.375,16.44,16.44V273.748z"/>
	</g>
</svg>
